<svg xmlns="http://www.w3.org/2000/svg" width="41.688" height="36" viewBox="0 0 41.688 36"><defs><style>.a{fill:#7ab253;}</style></defs><path class="a" d="M36.528,22.5H15.312l.474,2.25H35.213a1.7,1.7,0,0,1,1.694,2.061l-.4,1.707a3.93,3.93,0,0,1,2.286,3.544,4.056,4.056,0,0,1-8.1.109A3.869,3.869,0,0,1,31.9,29.25H16.731a3.871,3.871,0,0,1,1.218,2.813,4.058,4.058,0,0,1-8.1.212,3.911,3.911,0,0,1,2.03-3.627L6.795,4.5H1.737A1.713,1.713,0,0,1,0,2.813V1.688A1.713,1.713,0,0,1,1.737,0h7.42a1.726,1.726,0,0,1,1.7,1.349L11.523,4.5H39.95a1.7,1.7,0,0,1,1.694,2.061L38.222,21.186A1.727,1.727,0,0,1,36.528,22.5Zm-7-10.687H26.055V9A1.142,1.142,0,0,0,24.9,7.875H23.739A1.142,1.142,0,0,0,22.581,9v2.813H19.107a1.142,1.142,0,0,0-1.158,1.125v1.125a1.142,1.142,0,0,0,1.158,1.125h3.474V18a1.142,1.142,0,0,0,1.158,1.125H24.9A1.142,1.142,0,0,0,26.055,18V15.188h3.474a1.142,1.142,0,0,0,1.158-1.125V12.938A1.142,1.142,0,0,0,29.529,11.813Z"/></svg>