<svg xmlns="http://www.w3.org/2000/svg" xmlns:xlink="http://www.w3.org/1999/xlink" width="41.343" height="53" viewBox="0 0 41.343 53"><defs><style>.a{fill:#fff;}.b{filter:url(#a);}</style><filter id="a" x="0" y="0" width="41.343" height="53" filterUnits="userSpaceOnUse"><feOffset dy="3" input="SourceAlpha"/><feGaussianBlur stdDeviation="3" result="b"/><feFlood flood-opacity="0.161"/><feComposite operator="in" in2="b"/><feComposite in="SourceGraphic"/></filter></defs><g class="b" transform="matrix(1, 0, 0, 1, 0, 0)"><path class="a" d="M34.144,30.2a1.589,1.589,0,0,0-2.237-.012l-7.4,7.379V9.443a1.58,1.58,0,0,0-3.161,0V37.562l-7.4-7.391a1.6,1.6,0,0,0-2.237.012,1.574,1.574,0,0,0,.012,2.225L21.8,42.425h0a1.775,1.775,0,0,0,.5.328,1.508,1.508,0,0,0,.608.122,1.585,1.585,0,0,0,1.106-.45l10.09-10.017A1.549,1.549,0,0,0,34.144,30.2Z" transform="translate(-2.25 -1.88)"/></g></svg>